<svg width="59" height="58" viewBox="0 0 59 58" fill="none" xmlns="http://www.w3.org/2000/svg">
<rect x="0.5" width="58" height="58" rx="29" fill="url(#paint0_linear_1226_850)"/>
<circle cx="29.5" cy="29.0036" r="20.3571" stroke="white" stroke-width="1.48052"/>
<mask id="path-3-outside-1_1226_850" maskUnits="userSpaceOnUse" x="16.5002" y="18.4844" width="26" height="21" fill="black">
<rect fill="white" x="16.5002" y="18.4844" width="26" height="21"/>
<path d="M41.3973 25.568C41.3313 25.5023 41.2419 25.4654 41.1487 25.4654C41.0554 25.4654 40.966 25.5023 40.9001 25.568L38.8676 27.594L33.4229 22.052L35.3979 20.0832C35.4307 20.0507 35.4567 20.012 35.4744 19.9695C35.4922 19.9269 35.5013 19.8813 35.5014 19.8352C35.5014 19.7891 35.4924 19.7435 35.4747 19.7009C35.457 19.6583 35.4311 19.6196 35.3984 19.587C35.3657 19.5544 35.3269 19.5286 35.2842 19.511C35.2414 19.4934 35.1957 19.4843 35.1494 19.4844C35.1032 19.4844 35.0574 19.4936 35.0147 19.5113C34.9721 19.529 34.9333 19.5549 34.9007 19.5875L32.2159 22.2639C32.0396 22.4395 31.9029 22.6506 31.815 22.8831C31.727 23.1155 31.6897 23.364 31.7056 23.6119H31.235C30.8844 23.6121 30.5377 23.6859 30.2175 23.8285C29.8974 23.9712 29.611 24.1794 29.377 24.4398L29.3087 24.5159C28.6621 24.193 27.9535 24.012 27.2308 23.9852C27.3171 23.6847 27.3212 23.3666 27.2427 23.064C27.1643 22.7613 27.006 22.4851 26.7845 22.2639L24.0997 19.5875C24.0337 19.5219 23.9443 19.485 23.8511 19.485C23.7579 19.4851 23.6685 19.522 23.6026 19.5877C23.5367 19.6534 23.4997 19.7425 23.4996 19.8354C23.4996 19.9283 23.5366 20.0174 23.6025 20.0832L25.6068 22.0812L20.1621 27.6233L18.1003 25.568C18.0343 25.5023 17.9449 25.4655 17.8517 25.4655C17.7585 25.4655 17.6691 25.5025 17.6032 25.5682C17.5373 25.6339 17.5003 25.723 17.5002 25.8159C17.5002 25.9088 17.5372 25.9979 17.6031 26.0637L19.8546 28.308C19.8843 28.3589 19.9267 28.4013 19.9778 28.4309L20.2879 28.74C20.5099 28.9607 20.787 29.1184 21.0905 29.1966C21.3941 29.2748 21.7131 29.2708 22.0146 29.1849C22.0234 29.4233 22.0493 29.6607 22.0919 29.8955C21.9282 29.9704 21.7793 30.0739 21.652 30.2009L20.8802 30.9703C20.6671 31.1827 20.522 31.4533 20.4632 31.7479C20.4045 32.0425 20.4346 32.3478 20.5499 32.6253C20.6653 32.9028 20.8605 33.14 21.111 33.3068C21.3616 33.4737 21.6561 33.5628 21.9574 33.5628C22.0049 33.5628 22.0519 33.5604 22.0986 33.5562C22.0788 33.7665 22.1034 33.9786 22.1706 34.1789C22.2379 34.3792 22.3463 34.5633 22.489 34.7194C22.6317 34.8756 22.8056 35.0003 22.9994 35.0856C23.1933 35.1709 23.4028 35.2149 23.6147 35.2149C23.6622 35.2149 23.7092 35.2125 23.7559 35.2082C23.7362 35.4186 23.7607 35.6306 23.8279 35.8309C23.8952 36.0313 24.0036 36.2154 24.1463 36.3715C24.2891 36.5276 24.4629 36.6523 24.6567 36.7376C24.8506 36.823 25.0601 36.867 25.272 36.8669C25.3194 36.8669 25.3665 36.8646 25.4132 36.8603C25.3844 37.1712 25.4525 37.4833 25.6081 37.7542C25.7637 38.0251 25.9992 38.2416 26.2827 38.3742C26.5661 38.5069 26.8837 38.5493 27.1922 38.4956C27.5006 38.4419 27.785 38.2948 28.0066 38.0742L28.5142 37.5682L29.0219 38.0742C29.2349 38.2865 29.5064 38.4311 29.8019 38.4897C30.0974 38.5483 30.4036 38.5182 30.682 38.4033C30.9603 38.2883 31.1983 38.0937 31.3657 37.844C31.5331 37.5943 31.6225 37.3008 31.6226 37.0005C31.6226 36.9534 31.6202 36.9067 31.616 36.8604C31.6624 36.8646 31.7092 36.8669 31.7564 36.8669C32.1604 36.8669 32.5479 36.7069 32.8336 36.4221C33.1193 36.1373 33.2798 35.751 33.2798 35.3482C33.2798 35.3012 33.2775 35.2545 33.2732 35.2083C33.3196 35.2125 33.3664 35.2148 33.4136 35.2148C33.8177 35.2148 34.2052 35.0548 34.4909 34.77C34.7766 34.4852 34.9371 34.0989 34.9371 33.6962C34.9371 33.6491 34.9347 33.6025 34.9305 33.5562C34.9769 33.5604 35.0237 33.5628 35.0709 33.5628C35.3722 33.5628 35.6668 33.4737 35.9173 33.3069C36.1679 33.14 36.3631 32.9028 36.4784 32.6253C36.5937 32.3478 36.6239 32.0425 36.5651 31.7479C36.5063 31.4533 36.3612 31.1827 36.1482 30.9703L35.722 30.5455C36.2177 30.1697 36.6408 29.7073 36.9709 29.1809C37.2742 29.2699 37.5959 29.2759 37.9023 29.1984C38.2087 29.1208 38.4885 28.9625 38.7125 28.74L41.3973 26.0637C41.4632 25.9979 41.5002 25.9088 41.5002 25.8158C41.5002 25.7229 41.4632 25.6337 41.3973 25.568ZM20.7851 28.2443L20.6593 28.119L26.1041 22.5769L26.2873 22.7595C26.4848 22.9568 26.5957 23.2242 26.5957 23.5029C26.5957 23.7817 26.4848 24.0491 26.2873 24.2464L22.2766 28.2443C22.0787 28.4412 21.8105 28.5518 21.5309 28.5518C21.2512 28.5518 20.983 28.4412 20.7851 28.2443ZM21.9574 32.8619C21.7952 32.8619 21.6366 32.8139 21.5017 32.724C21.3668 32.6342 21.2617 32.5065 21.1996 32.3571C21.1375 32.2076 21.1213 32.0432 21.1529 31.8846C21.1846 31.726 21.2627 31.5803 21.3774 31.4659L22.1492 30.6966C22.2253 30.6205 22.3158 30.5602 22.4153 30.5189C22.5149 30.4777 22.6216 30.4565 22.7294 30.4564C22.8372 30.4564 22.944 30.4775 23.0436 30.5186C23.1432 30.5597 23.2337 30.62 23.3099 30.6959C23.3861 30.7719 23.4466 30.8621 23.4878 30.9614C23.529 31.0607 23.5502 31.1671 23.5502 31.2746C23.5501 31.382 23.5288 31.4884 23.4875 31.5877C23.4462 31.6869 23.3856 31.7771 23.3093 31.853L22.5375 32.6224C22.4615 32.6985 22.3711 32.7589 22.2715 32.8C22.172 32.8411 22.0652 32.8622 21.9574 32.8619ZM23.6147 34.514C23.4525 34.5139 23.2939 34.466 23.159 34.3761C23.0241 34.2862 22.919 34.1585 22.8569 34.0091C22.7948 33.8597 22.7786 33.6953 22.8102 33.5367C22.8418 33.3781 22.9199 33.2323 23.0346 33.118L23.8065 32.3487C23.9604 32.1957 24.1689 32.11 24.3862 32.1102C24.6035 32.1104 24.8119 32.1965 24.9655 32.3497C25.1192 32.5028 25.2056 32.7105 25.2058 32.9271C25.206 33.1438 25.12 33.3516 24.9666 33.5051L24.1948 34.2744C24.1188 34.3506 24.0284 34.411 23.9288 34.4521C23.8292 34.4932 23.7225 34.5142 23.6147 34.514ZM25.272 36.166C25.1643 36.1663 25.0575 36.1453 24.9579 36.1042C24.8584 36.0631 24.768 36.0027 24.692 35.9265C24.5384 35.773 24.4521 35.565 24.4521 35.3483C24.4521 35.1315 24.5383 34.9235 24.6919 34.77L25.4638 34.0007C25.5399 33.9246 25.6304 33.8642 25.7299 33.823C25.8295 33.7818 25.9362 33.7606 26.044 33.7605C26.1518 33.7604 26.2586 33.7816 26.3582 33.8227C26.4578 33.8638 26.5483 33.924 26.6246 34C26.7008 34.076 26.7612 34.1662 26.8025 34.2655C26.8437 34.3648 26.8649 34.4713 26.8648 34.5787C26.8647 34.6862 26.8434 34.7926 26.8021 34.8918C26.7607 34.9911 26.7001 35.0812 26.6238 35.1571L25.8521 35.9265C25.7761 36.0027 25.6857 36.0631 25.5861 36.1042C25.4865 36.1453 25.3798 36.1663 25.272 36.166ZM28.2811 36.8092L27.5094 37.5785C27.3555 37.7315 27.147 37.8174 26.9296 37.8172C26.7122 37.8171 26.5038 37.7309 26.3501 37.5777C26.1964 37.4245 26.11 37.2168 26.1099 37.0001C26.1097 36.7834 26.1958 36.5755 26.3493 36.4221L27.121 35.6528C27.1971 35.5766 27.2876 35.5162 27.3872 35.4749C27.4868 35.4336 27.5935 35.4123 27.7014 35.4122C27.8092 35.4121 27.9161 35.4332 28.0157 35.4743C28.1154 35.5154 28.2059 35.5757 28.2822 35.6517C28.3585 35.7277 28.4189 35.818 28.4602 35.9173C28.5014 36.0167 28.5226 36.1232 28.5225 36.2307C28.5224 36.3382 28.501 36.4446 28.4596 36.5439C28.4182 36.6432 28.3575 36.7333 28.2811 36.8092ZM35.8913 32.0441C35.8913 32.2059 35.8432 32.364 35.753 32.4985C35.6629 32.6329 35.5348 32.7378 35.3849 32.7996C35.235 32.8615 35.07 32.8777 34.9109 32.8462C34.7518 32.8146 34.6056 32.7367 34.4909 32.6223L31.9718 30.1112C31.9391 30.0786 31.9004 30.0528 31.8577 30.0351C31.8151 30.0175 31.7693 30.0084 31.7231 30.0084C31.6769 30.0084 31.6312 30.0174 31.5885 30.0351C31.5459 30.0527 31.5071 30.0785 31.4744 30.1111C31.4418 30.1436 31.4158 30.1823 31.3982 30.2248C31.3805 30.2674 31.3714 30.3129 31.3714 30.359C31.3714 30.405 31.3806 30.4506 31.3983 30.4932C31.416 30.5357 31.4419 30.5743 31.4746 30.6069L33.9937 33.118C34.0701 33.1938 34.1307 33.284 34.1721 33.3833C34.2135 33.4825 34.2349 33.589 34.235 33.6965C34.2351 33.804 34.2139 33.9105 34.1727 34.0098C34.1315 34.1092 34.071 34.1994 33.9948 34.2755C33.9185 34.3515 33.8279 34.4118 33.7283 34.4529C33.6286 34.494 33.5218 34.5151 33.4139 34.515C33.3061 34.5149 33.1993 34.4936 33.0997 34.4523C33.0001 34.411 32.9097 34.3505 32.8336 34.2744L30.3145 31.7632C30.2486 31.6975 30.1592 31.6606 30.0659 31.6606C29.9727 31.6606 29.8833 31.6975 29.8173 31.7632C29.7514 31.829 29.7143 31.9181 29.7143 32.0111C29.7143 32.104 29.7514 32.1932 29.8173 32.2589L32.3364 34.77C32.4127 34.8459 32.4732 34.9361 32.5145 35.0353C32.5559 35.1346 32.5772 35.241 32.5772 35.3484C32.5773 35.4559 32.5561 35.5623 32.5149 35.6616C32.4737 35.7609 32.4132 35.8511 32.337 35.927C32.2608 36.003 32.1703 36.0633 32.0707 36.1044C31.9711 36.1455 31.8643 36.1666 31.7565 36.1666C31.6487 36.1665 31.542 36.1453 31.4425 36.1041C31.3429 36.0629 31.2525 36.0025 31.1763 35.9264L28.6572 33.4153C28.6246 33.3827 28.5859 33.3568 28.5432 33.3391C28.5005 33.3214 28.4548 33.3123 28.4086 33.3123C28.3624 33.3123 28.3166 33.3213 28.2739 33.3389C28.2312 33.3565 28.1924 33.3823 28.1597 33.4149C28.127 33.4474 28.1011 33.4861 28.0834 33.5286C28.0658 33.5712 28.0567 33.6168 28.0567 33.6629C28.0567 33.7089 28.0658 33.7545 28.0835 33.7971C28.1012 33.8396 28.1271 33.8783 28.1598 33.9108L30.6789 36.422C30.7551 36.4979 30.8155 36.588 30.8568 36.6872C30.898 36.7864 30.9193 36.8927 30.9193 37.0001C30.9193 37.1075 30.8981 37.2138 30.8569 37.3131C30.8157 37.4123 30.7553 37.5024 30.6791 37.5784C30.603 37.6543 30.5126 37.7146 30.413 37.7557C30.3135 37.7968 30.2069 37.8179 30.0991 37.818C29.9914 37.818 29.8848 37.7969 29.7852 37.7558C29.6857 37.7147 29.5953 37.6545 29.5191 37.5786L28.986 37.0471C29.1327 36.8176 29.2148 36.5529 29.2237 36.2808C29.2327 36.0087 29.1681 35.7393 29.0368 35.5006C28.9054 35.262 28.7121 35.0629 28.4772 34.9242C28.2422 34.7855 27.9741 34.7123 27.7011 34.7123C27.6539 34.7123 27.6071 34.7147 27.5607 34.7189C27.5649 34.6726 27.5673 34.626 27.5673 34.5789C27.5672 34.1762 27.4067 33.7899 27.121 33.5051C26.8353 33.2203 26.4479 33.0603 26.0438 33.0602C25.9964 33.0602 25.9493 33.0626 25.9027 33.0669C25.9236 32.8447 25.895 32.6208 25.8191 32.4109C25.7432 32.201 25.6218 32.0105 25.4635 31.8528C25.3052 31.6951 25.114 31.5741 24.9034 31.4985C24.6928 31.423 24.4681 31.3946 24.2453 31.4156C24.2649 31.2096 24.2419 31.0018 24.1778 30.8051C24.1138 30.6083 24.01 30.4267 23.8728 30.2714C23.7357 30.1161 23.5681 29.9905 23.3804 29.9022C23.1927 29.814 22.9889 29.7649 22.7815 29.7581C22.7246 29.4392 22.7038 29.115 22.7196 28.7914C22.7379 28.7747 22.7561 28.7577 22.7739 28.74L26.7845 24.742C26.8023 24.7243 26.8193 24.7061 26.8361 24.6879C26.9049 24.6846 26.9745 24.6824 27.0453 24.6824C27.6569 24.6827 28.2616 24.8115 28.82 25.0604L26.5968 27.5375C26.4107 27.745 26.3113 28.0155 26.319 28.2937C26.3268 28.5719 26.441 28.8366 26.6383 29.0334C27.0127 29.4058 27.5201 29.6149 28.049 29.6149C28.5779 29.6149 29.0852 29.4058 29.4596 29.0334L31.3349 27.1635L32.4053 28.2305C33.2467 29.0691 34.0879 29.9077 34.9291 30.7464L34.93 30.7473L35.651 31.4659C35.7274 31.5417 35.788 31.6318 35.8292 31.7311C35.8705 31.8303 35.8916 31.9367 35.8913 32.0441ZM36.0045 29.3161C35.7731 29.5894 35.5098 29.8342 35.2201 30.0452C34.4476 29.2749 33.6751 28.5048 32.9025 27.7349L31.5835 26.4201C31.5175 26.3543 31.4281 26.3174 31.3348 26.3174C31.2416 26.3174 31.1522 26.3544 31.0862 26.4201L28.9624 28.5378C28.7199 28.7789 28.3914 28.9143 28.0489 28.9143C27.7065 28.9143 27.378 28.7789 27.1355 28.5378C27.0652 28.4676 27.0245 28.3733 27.0218 28.2742C27.0191 28.1751 27.0545 28.0787 27.1208 28.0048L29.9009 24.9073C30.0689 24.7203 30.2746 24.5708 30.5044 24.4683C30.7343 24.3659 30.9832 24.3129 31.235 24.3129H31.9C31.9827 24.4712 32.0892 24.6159 32.2159 24.742L36.2265 28.74C36.2655 28.7789 36.3061 28.8153 36.3478 28.8498C36.2436 29.0125 36.129 29.1682 36.0045 29.3161ZM38.2153 28.2443C38.0173 28.4412 37.7491 28.5518 37.4695 28.5518C37.1899 28.5518 36.9217 28.4412 36.7237 28.2443L32.7131 24.2464C32.5156 24.0491 32.4047 23.7817 32.4047 23.5029C32.4047 23.2242 32.5156 22.9568 32.7131 22.7595L32.9256 22.5477L38.3704 28.0897L38.2153 28.2443Z"/>
</mask>
<path d="M41.3973 25.568C41.3313 25.5023 41.2419 25.4654 41.1487 25.4654C41.0554 25.4654 40.966 25.5023 40.9001 25.568L38.8676 27.594L33.4229 22.052L35.3979 20.0832C35.4307 20.0507 35.4567 20.012 35.4744 19.9695C35.4922 19.9269 35.5013 19.8813 35.5014 19.8352C35.5014 19.7891 35.4924 19.7435 35.4747 19.7009C35.457 19.6583 35.4311 19.6196 35.3984 19.587C35.3657 19.5544 35.3269 19.5286 35.2842 19.511C35.2414 19.4934 35.1957 19.4843 35.1494 19.4844C35.1032 19.4844 35.0574 19.4936 35.0147 19.5113C34.9721 19.529 34.9333 19.5549 34.9007 19.5875L32.2159 22.2639C32.0396 22.4395 31.9029 22.6506 31.815 22.8831C31.727 23.1155 31.6897 23.364 31.7056 23.6119H31.235C30.8844 23.6121 30.5377 23.6859 30.2175 23.8285C29.8974 23.9712 29.611 24.1794 29.377 24.4398L29.3087 24.5159C28.6621 24.193 27.9535 24.012 27.2308 23.9852C27.3171 23.6847 27.3212 23.3666 27.2427 23.064C27.1643 22.7613 27.006 22.4851 26.7845 22.2639L24.0997 19.5875C24.0337 19.5219 23.9443 19.485 23.8511 19.485C23.7579 19.4851 23.6685 19.522 23.6026 19.5877C23.5367 19.6534 23.4997 19.7425 23.4996 19.8354C23.4996 19.9283 23.5366 20.0174 23.6025 20.0832L25.6068 22.0812L20.1621 27.6233L18.1003 25.568C18.0343 25.5023 17.9449 25.4655 17.8517 25.4655C17.7585 25.4655 17.6691 25.5025 17.6032 25.5682C17.5373 25.6339 17.5003 25.723 17.5002 25.8159C17.5002 25.9088 17.5372 25.9979 17.6031 26.0637L19.8546 28.308C19.8843 28.3589 19.9267 28.4013 19.9778 28.4309L20.2879 28.74C20.5099 28.9607 20.787 29.1184 21.0905 29.1966C21.3941 29.2748 21.7131 29.2708 22.0146 29.1849C22.0234 29.4233 22.0493 29.6607 22.0919 29.8955C21.9282 29.9704 21.7793 30.0739 21.652 30.2009L20.8802 30.9703C20.6671 31.1827 20.522 31.4533 20.4632 31.7479C20.4045 32.0425 20.4346 32.3478 20.5499 32.6253C20.6653 32.9028 20.8605 33.14 21.111 33.3068C21.3616 33.4737 21.6561 33.5628 21.9574 33.5628C22.0049 33.5628 22.0519 33.5604 22.0986 33.5562C22.0788 33.7665 22.1034 33.9786 22.1706 34.1789C22.2379 34.3792 22.3463 34.5633 22.489 34.7194C22.6317 34.8756 22.8056 35.0003 22.9994 35.0856C23.1933 35.1709 23.4028 35.2149 23.6147 35.2149C23.6622 35.2149 23.7092 35.2125 23.7559 35.2082C23.7362 35.4186 23.7607 35.6306 23.8279 35.8309C23.8952 36.0313 24.0036 36.2154 24.1463 36.3715C24.2891 36.5276 24.4629 36.6523 24.6567 36.7376C24.8506 36.823 25.0601 36.867 25.272 36.8669C25.3194 36.8669 25.3665 36.8646 25.4132 36.8603C25.3844 37.1712 25.4525 37.4833 25.6081 37.7542C25.7637 38.0251 25.9992 38.2416 26.2827 38.3742C26.5661 38.5069 26.8837 38.5493 27.1922 38.4956C27.5006 38.4419 27.785 38.2948 28.0066 38.0742L28.5142 37.5682L29.0219 38.0742C29.2349 38.2865 29.5064 38.4311 29.8019 38.4897C30.0974 38.5483 30.4036 38.5182 30.682 38.4033C30.9603 38.2883 31.1983 38.0937 31.3657 37.844C31.5331 37.5943 31.6225 37.3008 31.6226 37.0005C31.6226 36.9534 31.6202 36.9067 31.616 36.8604C31.6624 36.8646 31.7092 36.8669 31.7564 36.8669C32.1604 36.8669 32.5479 36.7069 32.8336 36.4221C33.1193 36.1373 33.2798 35.751 33.2798 35.3482C33.2798 35.3012 33.2775 35.2545 33.2732 35.2083C33.3196 35.2125 33.3664 35.2148 33.4136 35.2148C33.8177 35.2148 34.2052 35.0548 34.4909 34.77C34.7766 34.4852 34.9371 34.0989 34.9371 33.6962C34.9371 33.6491 34.9347 33.6025 34.9305 33.5562C34.9769 33.5604 35.0237 33.5628 35.0709 33.5628C35.3722 33.5628 35.6668 33.4737 35.9173 33.3069C36.1679 33.14 36.3631 32.9028 36.4784 32.6253C36.5937 32.3478 36.6239 32.0425 36.5651 31.7479C36.5063 31.4533 36.3612 31.1827 36.1482 30.9703L35.722 30.5455C36.2177 30.1697 36.6408 29.7073 36.9709 29.1809C37.2742 29.2699 37.5959 29.2759 37.9023 29.1984C38.2087 29.1208 38.4885 28.9625 38.7125 28.74L41.3973 26.0637C41.4632 25.9979 41.5002 25.9088 41.5002 25.8158C41.5002 25.7229 41.4632 25.6337 41.3973 25.568ZM20.7851 28.2443L20.6593 28.119L26.1041 22.5769L26.2873 22.7595C26.4848 22.9568 26.5957 23.2242 26.5957 23.5029C26.5957 23.7817 26.4848 24.0491 26.2873 24.2464L22.2766 28.2443C22.0787 28.4412 21.8105 28.5518 21.5309 28.5518C21.2512 28.5518 20.983 28.4412 20.7851 28.2443ZM21.9574 32.8619C21.7952 32.8619 21.6366 32.8139 21.5017 32.724C21.3668 32.6342 21.2617 32.5065 21.1996 32.3571C21.1375 32.2076 21.1213 32.0432 21.1529 31.8846C21.1846 31.726 21.2627 31.5803 21.3774 31.4659L22.1492 30.6966C22.2253 30.6205 22.3158 30.5602 22.4153 30.5189C22.5149 30.4777 22.6216 30.4565 22.7294 30.4564C22.8372 30.4564 22.944 30.4775 23.0436 30.5186C23.1432 30.5597 23.2337 30.62 23.3099 30.6959C23.3861 30.7719 23.4466 30.8621 23.4878 30.9614C23.529 31.0607 23.5502 31.1671 23.5502 31.2746C23.5501 31.382 23.5288 31.4884 23.4875 31.5877C23.4462 31.6869 23.3856 31.7771 23.3093 31.853L22.5375 32.6224C22.4615 32.6985 22.3711 32.7589 22.2715 32.8C22.172 32.8411 22.0652 32.8622 21.9574 32.8619ZM23.6147 34.514C23.4525 34.5139 23.2939 34.466 23.159 34.3761C23.0241 34.2862 22.919 34.1585 22.8569 34.0091C22.7948 33.8597 22.7786 33.6953 22.8102 33.5367C22.8418 33.3781 22.9199 33.2323 23.0346 33.118L23.8065 32.3487C23.9604 32.1957 24.1689 32.11 24.3862 32.1102C24.6035 32.1104 24.8119 32.1965 24.9655 32.3497C25.1192 32.5028 25.2056 32.7105 25.2058 32.9271C25.206 33.1438 25.12 33.3516 24.9666 33.5051L24.1948 34.2744C24.1188 34.3506 24.0284 34.411 23.9288 34.4521C23.8292 34.4932 23.7225 34.5142 23.6147 34.514ZM25.272 36.166C25.1643 36.1663 25.0575 36.1453 24.9579 36.1042C24.8584 36.0631 24.768 36.0027 24.692 35.9265C24.5384 35.773 24.4521 35.565 24.4521 35.3483C24.4521 35.1315 24.5383 34.9235 24.6919 34.77L25.4638 34.0007C25.5399 33.9246 25.6304 33.8642 25.7299 33.823C25.8295 33.7818 25.9362 33.7606 26.044 33.7605C26.1518 33.7604 26.2586 33.7816 26.3582 33.8227C26.4578 33.8638 26.5483 33.924 26.6246 34C26.7008 34.076 26.7612 34.1662 26.8025 34.2655C26.8437 34.3648 26.8649 34.4713 26.8648 34.5787C26.8647 34.6862 26.8434 34.7926 26.8021 34.8918C26.7607 34.9911 26.7001 35.0812 26.6238 35.1571L25.8521 35.9265C25.7761 36.0027 25.6857 36.0631 25.5861 36.1042C25.4865 36.1453 25.3798 36.1663 25.272 36.166ZM28.2811 36.8092L27.5094 37.5785C27.3555 37.7315 27.147 37.8174 26.9296 37.8172C26.7122 37.8171 26.5038 37.7309 26.3501 37.5777C26.1964 37.4245 26.11 37.2168 26.1099 37.0001C26.1097 36.7834 26.1958 36.5755 26.3493 36.4221L27.121 35.6528C27.1971 35.5766 27.2876 35.5162 27.3872 35.4749C27.4868 35.4336 27.5935 35.4123 27.7014 35.4122C27.8092 35.4121 27.9161 35.4332 28.0157 35.4743C28.1154 35.5154 28.2059 35.5757 28.2822 35.6517C28.3585 35.7277 28.4189 35.818 28.4602 35.9173C28.5014 36.0167 28.5226 36.1232 28.5225 36.2307C28.5224 36.3382 28.501 36.4446 28.4596 36.5439C28.4182 36.6432 28.3575 36.7333 28.2811 36.8092ZM35.8913 32.0441C35.8913 32.2059 35.8432 32.364 35.753 32.4985C35.6629 32.6329 35.5348 32.7378 35.3849 32.7996C35.235 32.8615 35.07 32.8777 34.9109 32.8462C34.7518 32.8146 34.6056 32.7367 34.4909 32.6223L31.9718 30.1112C31.9391 30.0786 31.9004 30.0528 31.8577 30.0351C31.8151 30.0175 31.7693 30.0084 31.7231 30.0084C31.6769 30.0084 31.6312 30.0174 31.5885 30.0351C31.5459 30.0527 31.5071 30.0785 31.4744 30.1111C31.4418 30.1436 31.4158 30.1823 31.3982 30.2248C31.3805 30.2674 31.3714 30.3129 31.3714 30.359C31.3714 30.405 31.3806 30.4506 31.3983 30.4932C31.416 30.5357 31.4419 30.5743 31.4746 30.6069L33.9937 33.118C34.0701 33.1938 34.1307 33.284 34.1721 33.3833C34.2135 33.4825 34.2349 33.589 34.235 33.6965C34.2351 33.804 34.2139 33.9105 34.1727 34.0098C34.1315 34.1092 34.071 34.1994 33.9948 34.2755C33.9185 34.3515 33.8279 34.4118 33.7283 34.4529C33.6286 34.494 33.5218 34.5151 33.4139 34.515C33.3061 34.5149 33.1993 34.4936 33.0997 34.4523C33.0001 34.411 32.9097 34.3505 32.8336 34.2744L30.3145 31.7632C30.2486 31.6975 30.1592 31.6606 30.0659 31.6606C29.9727 31.6606 29.8833 31.6975 29.8173 31.7632C29.7514 31.829 29.7143 31.9181 29.7143 32.0111C29.7143 32.104 29.7514 32.1932 29.8173 32.2589L32.3364 34.77C32.4127 34.8459 32.4732 34.9361 32.5145 35.0353C32.5559 35.1346 32.5772 35.241 32.5772 35.3484C32.5773 35.4559 32.5561 35.5623 32.5149 35.6616C32.4737 35.7609 32.4132 35.8511 32.337 35.927C32.2608 36.003 32.1703 36.0633 32.0707 36.1044C31.9711 36.1455 31.8643 36.1666 31.7565 36.1666C31.6487 36.1665 31.542 36.1453 31.4425 36.1041C31.3429 36.0629 31.2525 36.0025 31.1763 35.9264L28.6572 33.4153C28.6246 33.3827 28.5859 33.3568 28.5432 33.3391C28.5005 33.3214 28.4548 33.3123 28.4086 33.3123C28.3624 33.3123 28.3166 33.3213 28.2739 33.3389C28.2312 33.3565 28.1924 33.3823 28.1597 33.4149C28.127 33.4474 28.1011 33.4861 28.0834 33.5286C28.0658 33.5712 28.0567 33.6168 28.0567 33.6629C28.0567 33.7089 28.0658 33.7545 28.0835 33.7971C28.1012 33.8396 28.1271 33.8783 28.1598 33.9108L30.6789 36.422C30.7551 36.4979 30.8155 36.588 30.8568 36.6872C30.898 36.7864 30.9193 36.8927 30.9193 37.0001C30.9193 37.1075 30.8981 37.2138 30.8569 37.3131C30.8157 37.4123 30.7553 37.5024 30.6791 37.5784C30.603 37.6543 30.5126 37.7146 30.413 37.7557C30.3135 37.7968 30.2069 37.8179 30.0991 37.818C29.9914 37.818 29.8848 37.7969 29.7852 37.7558C29.6857 37.7147 29.5953 37.6545 29.5191 37.5786L28.986 37.0471C29.1327 36.8176 29.2148 36.5529 29.2237 36.2808C29.2327 36.0087 29.1681 35.7393 29.0368 35.5006C28.9054 35.262 28.7121 35.0629 28.4772 34.9242C28.2422 34.7855 27.9741 34.7123 27.7011 34.7123C27.6539 34.7123 27.6071 34.7147 27.5607 34.7189C27.5649 34.6726 27.5673 34.626 27.5673 34.5789C27.5672 34.1762 27.4067 33.7899 27.121 33.5051C26.8353 33.2203 26.4479 33.0603 26.0438 33.0602C25.9964 33.0602 25.9493 33.0626 25.9027 33.0669C25.9236 32.8447 25.895 32.6208 25.8191 32.4109C25.7432 32.201 25.6218 32.0105 25.4635 31.8528C25.3052 31.6951 25.114 31.5741 24.9034 31.4985C24.6928 31.423 24.4681 31.3946 24.2453 31.4156C24.2649 31.2096 24.2419 31.0018 24.1778 30.8051C24.1138 30.6083 24.01 30.4267 23.8728 30.2714C23.7357 30.1161 23.5681 29.9905 23.3804 29.9022C23.1927 29.814 22.9889 29.7649 22.7815 29.7581C22.7246 29.4392 22.7038 29.115 22.7196 28.7914C22.7379 28.7747 22.7561 28.7577 22.7739 28.74L26.7845 24.742C26.8023 24.7243 26.8193 24.7061 26.8361 24.6879C26.9049 24.6846 26.9745 24.6824 27.0453 24.6824C27.6569 24.6827 28.2616 24.8115 28.82 25.0604L26.5968 27.5375C26.4107 27.745 26.3113 28.0155 26.319 28.2937C26.3268 28.5719 26.441 28.8366 26.6383 29.0334C27.0127 29.4058 27.5201 29.6149 28.049 29.6149C28.5779 29.6149 29.0852 29.4058 29.4596 29.0334L31.3349 27.1635L32.4053 28.2305C33.2467 29.0691 34.0879 29.9077 34.9291 30.7464L34.93 30.7473L35.651 31.4659C35.7274 31.5417 35.788 31.6318 35.8292 31.7311C35.8705 31.8303 35.8916 31.9367 35.8913 32.0441ZM36.0045 29.3161C35.7731 29.5894 35.5098 29.8342 35.2201 30.0452C34.4476 29.2749 33.6751 28.5048 32.9025 27.7349L31.5835 26.4201C31.5175 26.3543 31.4281 26.3174 31.3348 26.3174C31.2416 26.3174 31.1522 26.3544 31.0862 26.4201L28.9624 28.5378C28.7199 28.7789 28.3914 28.9143 28.0489 28.9143C27.7065 28.9143 27.378 28.7789 27.1355 28.5378C27.0652 28.4676 27.0245 28.3733 27.0218 28.2742C27.0191 28.1751 27.0545 28.0787 27.1208 28.0048L29.9009 24.9073C30.0689 24.7203 30.2746 24.5708 30.5044 24.4683C30.7343 24.3659 30.9832 24.3129 31.235 24.3129H31.9C31.9827 24.4712 32.0892 24.6159 32.2159 24.742L36.2265 28.74C36.2655 28.7789 36.3061 28.8153 36.3478 28.8498C36.2436 29.0125 36.129 29.1682 36.0045 29.3161ZM38.2153 28.2443C38.0173 28.4412 37.7491 28.5518 37.4695 28.5518C37.1899 28.5518 36.9217 28.4412 36.7237 28.2443L32.7131 24.2464C32.5156 24.0491 32.4047 23.7817 32.4047 23.5029C32.4047 23.2242 32.5156 22.9568 32.7131 22.7595L32.9256 22.5477L38.3704 28.0897L38.2153 28.2443Z" fill="white"/>
<path d="M41.3973 25.568C41.3313 25.5023 41.2419 25.4654 41.1487 25.4654C41.0554 25.4654 40.966 25.5023 40.9001 25.568L38.8676 27.594L33.4229 22.052L35.3979 20.0832C35.4307 20.0507 35.4567 20.012 35.4744 19.9695C35.4922 19.9269 35.5013 19.8813 35.5014 19.8352C35.5014 19.7891 35.4924 19.7435 35.4747 19.7009C35.457 19.6583 35.4311 19.6196 35.3984 19.587C35.3657 19.5544 35.3269 19.5286 35.2842 19.511C35.2414 19.4934 35.1957 19.4843 35.1494 19.4844C35.1032 19.4844 35.0574 19.4936 35.0147 19.5113C34.9721 19.529 34.9333 19.5549 34.9007 19.5875L32.2159 22.2639C32.0396 22.4395 31.9029 22.6506 31.815 22.8831C31.727 23.1155 31.6897 23.364 31.7056 23.6119H31.235C30.8844 23.6121 30.5377 23.6859 30.2175 23.8285C29.8974 23.9712 29.611 24.1794 29.377 24.4398L29.3087 24.5159C28.6621 24.193 27.9535 24.012 27.2308 23.9852C27.3171 23.6847 27.3212 23.3666 27.2427 23.064C27.1643 22.7613 27.006 22.4851 26.7845 22.2639L24.0997 19.5875C24.0337 19.5219 23.9443 19.485 23.8511 19.485C23.7579 19.4851 23.6685 19.522 23.6026 19.5877C23.5367 19.6534 23.4997 19.7425 23.4996 19.8354C23.4996 19.9283 23.5366 20.0174 23.6025 20.0832L25.6068 22.0812L20.1621 27.6233L18.1003 25.568C18.0343 25.5023 17.9449 25.4655 17.8517 25.4655C17.7585 25.4655 17.6691 25.5025 17.6032 25.5682C17.5373 25.6339 17.5003 25.723 17.5002 25.8159C17.5002 25.9088 17.5372 25.9979 17.6031 26.0637L19.8546 28.308C19.8843 28.3589 19.9267 28.4013 19.9778 28.4309L20.2879 28.74C20.5099 28.9607 20.787 29.1184 21.0905 29.1966C21.3941 29.2748 21.7131 29.2708 22.0146 29.1849C22.0234 29.4233 22.0493 29.6607 22.0919 29.8955C21.9282 29.9704 21.7793 30.0739 21.652 30.2009L20.8802 30.9703C20.6671 31.1827 20.522 31.4533 20.4632 31.7479C20.4045 32.0425 20.4346 32.3478 20.5499 32.6253C20.6653 32.9028 20.8605 33.14 21.111 33.3068C21.3616 33.4737 21.6561 33.5628 21.9574 33.5628C22.0049 33.5628 22.0519 33.5604 22.0986 33.5562C22.0788 33.7665 22.1034 33.9786 22.1706 34.1789C22.2379 34.3792 22.3463 34.5633 22.489 34.7194C22.6317 34.8756 22.8056 35.0003 22.9994 35.0856C23.1933 35.1709 23.4028 35.2149 23.6147 35.2149C23.6622 35.2149 23.7092 35.2125 23.7559 35.2082C23.7362 35.4186 23.7607 35.6306 23.8279 35.8309C23.8952 36.0313 24.0036 36.2154 24.1463 36.3715C24.2891 36.5276 24.4629 36.6523 24.6567 36.7376C24.8506 36.823 25.0601 36.867 25.272 36.8669C25.3194 36.8669 25.3665 36.8646 25.4132 36.8603C25.3844 37.1712 25.4525 37.4833 25.6081 37.7542C25.7637 38.0251 25.9992 38.2416 26.2827 38.3742C26.5661 38.5069 26.8837 38.5493 27.1922 38.4956C27.5006 38.4419 27.785 38.2948 28.0066 38.0742L28.5142 37.5682L29.0219 38.0742C29.2349 38.2865 29.5064 38.4311 29.8019 38.4897C30.0974 38.5483 30.4036 38.5182 30.682 38.4033C30.9603 38.2883 31.1983 38.0937 31.3657 37.844C31.5331 37.5943 31.6225 37.3008 31.6226 37.0005C31.6226 36.9534 31.6202 36.9067 31.616 36.8604C31.6624 36.8646 31.7092 36.8669 31.7564 36.8669C32.1604 36.8669 32.5479 36.7069 32.8336 36.4221C33.1193 36.1373 33.2798 35.751 33.2798 35.3482C33.2798 35.3012 33.2775 35.2545 33.2732 35.2083C33.3196 35.2125 33.3664 35.2148 33.4136 35.2148C33.8177 35.2148 34.2052 35.0548 34.4909 34.77C34.7766 34.4852 34.9371 34.0989 34.9371 33.6962C34.9371 33.6491 34.9347 33.6025 34.9305 33.5562C34.9769 33.5604 35.0237 33.5628 35.0709 33.5628C35.3722 33.5628 35.6668 33.4737 35.9173 33.3069C36.1679 33.14 36.3631 32.9028 36.4784 32.6253C36.5937 32.3478 36.6239 32.0425 36.5651 31.7479C36.5063 31.4533 36.3612 31.1827 36.1482 30.9703L35.722 30.5455C36.2177 30.1697 36.6408 29.7073 36.9709 29.1809C37.2742 29.2699 37.5959 29.2759 37.9023 29.1984C38.2087 29.1208 38.4885 28.9625 38.7125 28.74L41.3973 26.0637C41.4632 25.9979 41.5002 25.9088 41.5002 25.8158C41.5002 25.7229 41.4632 25.6337 41.3973 25.568ZM20.7851 28.2443L20.6593 28.119L26.1041 22.5769L26.2873 22.7595C26.4848 22.9568 26.5957 23.2242 26.5957 23.5029C26.5957 23.7817 26.4848 24.0491 26.2873 24.2464L22.2766 28.2443C22.0787 28.4412 21.8105 28.5518 21.5309 28.5518C21.2512 28.5518 20.983 28.4412 20.7851 28.2443ZM21.9574 32.8619C21.7952 32.8619 21.6366 32.8139 21.5017 32.724C21.3668 32.6342 21.2617 32.5065 21.1996 32.3571C21.1375 32.2076 21.1213 32.0432 21.1529 31.8846C21.1846 31.726 21.2627 31.5803 21.3774 31.4659L22.1492 30.6966C22.2253 30.6205 22.3158 30.5602 22.4153 30.5189C22.5149 30.4777 22.6216 30.4565 22.7294 30.4564C22.8372 30.4564 22.944 30.4775 23.0436 30.5186C23.1432 30.5597 23.2337 30.62 23.3099 30.6959C23.3861 30.7719 23.4466 30.8621 23.4878 30.9614C23.529 31.0607 23.5502 31.1671 23.5502 31.2746C23.5501 31.382 23.5288 31.4884 23.4875 31.5877C23.4462 31.6869 23.3856 31.7771 23.3093 31.853L22.5375 32.6224C22.4615 32.6985 22.3711 32.7589 22.2715 32.8C22.172 32.8411 22.0652 32.8622 21.9574 32.8619ZM23.6147 34.514C23.4525 34.5139 23.2939 34.466 23.159 34.3761C23.0241 34.2862 22.919 34.1585 22.8569 34.0091C22.7948 33.8597 22.7786 33.6953 22.8102 33.5367C22.8418 33.3781 22.9199 33.2323 23.0346 33.118L23.8065 32.3487C23.9604 32.1957 24.1689 32.11 24.3862 32.1102C24.6035 32.1104 24.8119 32.1965 24.9655 32.3497C25.1192 32.5028 25.2056 32.7105 25.2058 32.9271C25.206 33.1438 25.12 33.3516 24.9666 33.5051L24.1948 34.2744C24.1188 34.3506 24.0284 34.411 23.9288 34.4521C23.8292 34.4932 23.7225 34.5142 23.6147 34.514ZM25.272 36.166C25.1643 36.1663 25.0575 36.1453 24.9579 36.1042C24.8584 36.0631 24.768 36.0027 24.692 35.9265C24.5384 35.773 24.4521 35.565 24.4521 35.3483C24.4521 35.1315 24.5383 34.9235 24.6919 34.77L25.4638 34.0007C25.5399 33.9246 25.6304 33.8642 25.7299 33.823C25.8295 33.7818 25.9362 33.7606 26.044 33.7605C26.1518 33.7604 26.2586 33.7816 26.3582 33.8227C26.4578 33.8638 26.5483 33.924 26.6246 34C26.7008 34.076 26.7612 34.1662 26.8025 34.2655C26.8437 34.3648 26.8649 34.4713 26.8648 34.5787C26.8647 34.6862 26.8434 34.7926 26.8021 34.8918C26.7607 34.9911 26.7001 35.0812 26.6238 35.1571L25.8521 35.9265C25.7761 36.0027 25.6857 36.0631 25.5861 36.1042C25.4865 36.1453 25.3798 36.1663 25.272 36.166ZM28.2811 36.8092L27.5094 37.5785C27.3555 37.7315 27.147 37.8174 26.9296 37.8172C26.7122 37.8171 26.5038 37.7309 26.3501 37.5777C26.1964 37.4245 26.11 37.2168 26.1099 37.0001C26.1097 36.7834 26.1958 36.5755 26.3493 36.4221L27.121 35.6528C27.1971 35.5766 27.2876 35.5162 27.3872 35.4749C27.4868 35.4336 27.5935 35.4123 27.7014 35.4122C27.8092 35.4121 27.9161 35.4332 28.0157 35.4743C28.1154 35.5154 28.2059 35.5757 28.2822 35.6517C28.3585 35.7277 28.4189 35.818 28.4602 35.9173C28.5014 36.0167 28.5226 36.1232 28.5225 36.2307C28.5224 36.3382 28.501 36.4446 28.4596 36.5439C28.4182 36.6432 28.3575 36.7333 28.2811 36.8092ZM35.8913 32.0441C35.8913 32.2059 35.8432 32.364 35.753 32.4985C35.6629 32.6329 35.5348 32.7378 35.3849 32.7996C35.235 32.8615 35.07 32.8777 34.9109 32.8462C34.7518 32.8146 34.6056 32.7367 34.4909 32.6223L31.9718 30.1112C31.9391 30.0786 31.9004 30.0528 31.8577 30.0351C31.8151 30.0175 31.7693 30.0084 31.7231 30.0084C31.6769 30.0084 31.6312 30.0174 31.5885 30.0351C31.5459 30.0527 31.5071 30.0785 31.4744 30.1111C31.4418 30.1436 31.4158 30.1823 31.3982 30.2248C31.3805 30.2674 31.3714 30.3129 31.3714 30.359C31.3714 30.405 31.3806 30.4506 31.3983 30.4932C31.416 30.5357 31.4419 30.5743 31.4746 30.6069L33.9937 33.118C34.0701 33.1938 34.1307 33.284 34.1721 33.3833C34.2135 33.4825 34.2349 33.589 34.235 33.6965C34.2351 33.804 34.2139 33.9105 34.1727 34.0098C34.1315 34.1092 34.071 34.1994 33.9948 34.2755C33.9185 34.3515 33.8279 34.4118 33.7283 34.4529C33.6286 34.494 33.5218 34.5151 33.4139 34.515C33.3061 34.5149 33.1993 34.4936 33.0997 34.4523C33.0001 34.411 32.9097 34.3505 32.8336 34.2744L30.3145 31.7632C30.2486 31.6975 30.1592 31.6606 30.0659 31.6606C29.9727 31.6606 29.8833 31.6975 29.8173 31.7632C29.7514 31.829 29.7143 31.9181 29.7143 32.0111C29.7143 32.104 29.7514 32.1932 29.8173 32.2589L32.3364 34.77C32.4127 34.8459 32.4732 34.9361 32.5145 35.0353C32.5559 35.1346 32.5772 35.241 32.5772 35.3484C32.5773 35.4559 32.5561 35.5623 32.5149 35.6616C32.4737 35.7609 32.4132 35.8511 32.337 35.927C32.2608 36.003 32.1703 36.0633 32.0707 36.1044C31.9711 36.1455 31.8643 36.1666 31.7565 36.1666C31.6487 36.1665 31.542 36.1453 31.4425 36.1041C31.3429 36.0629 31.2525 36.0025 31.1763 35.9264L28.6572 33.4153C28.6246 33.3827 28.5859 33.3568 28.5432 33.3391C28.5005 33.3214 28.4548 33.3123 28.4086 33.3123C28.3624 33.3123 28.3166 33.3213 28.2739 33.3389C28.2312 33.3565 28.1924 33.3823 28.1597 33.4149C28.127 33.4474 28.1011 33.4861 28.0834 33.5286C28.0658 33.5712 28.0567 33.6168 28.0567 33.6629C28.0567 33.7089 28.0658 33.7545 28.0835 33.7971C28.1012 33.8396 28.1271 33.8783 28.1598 33.9108L30.6789 36.422C30.7551 36.4979 30.8155 36.588 30.8568 36.6872C30.898 36.7864 30.9193 36.8927 30.9193 37.0001C30.9193 37.1075 30.8981 37.2138 30.8569 37.3131C30.8157 37.4123 30.7553 37.5024 30.6791 37.5784C30.603 37.6543 30.5126 37.7146 30.413 37.7557C30.3135 37.7968 30.2069 37.8179 30.0991 37.818C29.9914 37.818 29.8848 37.7969 29.7852 37.7558C29.6857 37.7147 29.5953 37.6545 29.5191 37.5786L28.986 37.0471C29.1327 36.8176 29.2148 36.5529 29.2237 36.2808C29.2327 36.0087 29.1681 35.7393 29.0368 35.5006C28.9054 35.262 28.7121 35.0629 28.4772 34.9242C28.2422 34.7855 27.9741 34.7123 27.7011 34.7123C27.6539 34.7123 27.6071 34.7147 27.5607 34.7189C27.5649 34.6726 27.5673 34.626 27.5673 34.5789C27.5672 34.1762 27.4067 33.7899 27.121 33.5051C26.8353 33.2203 26.4479 33.0603 26.0438 33.0602C25.9964 33.0602 25.9493 33.0626 25.9027 33.0669C25.9236 32.8447 25.895 32.6208 25.8191 32.4109C25.7432 32.201 25.6218 32.0105 25.4635 31.8528C25.3052 31.6951 25.114 31.5741 24.9034 31.4985C24.6928 31.423 24.4681 31.3946 24.2453 31.4156C24.2649 31.2096 24.2419 31.0018 24.1778 30.8051C24.1138 30.6083 24.01 30.4267 23.8728 30.2714C23.7357 30.1161 23.5681 29.9905 23.3804 29.9022C23.1927 29.814 22.9889 29.7649 22.7815 29.7581C22.7246 29.4392 22.7038 29.115 22.7196 28.7914C22.7379 28.7747 22.7561 28.7577 22.7739 28.74L26.7845 24.742C26.8023 24.7243 26.8193 24.7061 26.8361 24.6879C26.9049 24.6846 26.9745 24.6824 27.0453 24.6824C27.6569 24.6827 28.2616 24.8115 28.82 25.0604L26.5968 27.5375C26.4107 27.745 26.3113 28.0155 26.319 28.2937C26.3268 28.5719 26.441 28.8366 26.6383 29.0334C27.0127 29.4058 27.5201 29.6149 28.049 29.6149C28.5779 29.6149 29.0852 29.4058 29.4596 29.0334L31.3349 27.1635L32.4053 28.2305C33.2467 29.0691 34.0879 29.9077 34.9291 30.7464L34.93 30.7473L35.651 31.4659C35.7274 31.5417 35.788 31.6318 35.8292 31.7311C35.8705 31.8303 35.8916 31.9367 35.8913 32.0441ZM36.0045 29.3161C35.7731 29.5894 35.5098 29.8342 35.2201 30.0452C34.4476 29.2749 33.6751 28.5048 32.9025 27.7349L31.5835 26.4201C31.5175 26.3543 31.4281 26.3174 31.3348 26.3174C31.2416 26.3174 31.1522 26.3544 31.0862 26.4201L28.9624 28.5378C28.7199 28.7789 28.3914 28.9143 28.0489 28.9143C27.7065 28.9143 27.378 28.7789 27.1355 28.5378C27.0652 28.4676 27.0245 28.3733 27.0218 28.2742C27.0191 28.1751 27.0545 28.0787 27.1208 28.0048L29.9009 24.9073C30.0689 24.7203 30.2746 24.5708 30.5044 24.4683C30.7343 24.3659 30.9832 24.3129 31.235 24.3129H31.9C31.9827 24.4712 32.0892 24.6159 32.2159 24.742L36.2265 28.74C36.2655 28.7789 36.3061 28.8153 36.3478 28.8498C36.2436 29.0125 36.129 29.1682 36.0045 29.3161ZM38.2153 28.2443C38.0173 28.4412 37.7491 28.5518 37.4695 28.5518C37.1899 28.5518 36.9217 28.4412 36.7237 28.2443L32.7131 24.2464C32.5156 24.0491 32.4047 23.7817 32.4047 23.5029C32.4047 23.2242 32.5156 22.9568 32.7131 22.7595L32.9256 22.5477L38.3704 28.0897L38.2153 28.2443Z" stroke="white" stroke-width="0.4" mask="url(#path-3-outside-1_1226_850)"/>
<defs>
<linearGradient id="paint0_linear_1226_850" x1="0.684714" y1="12.5849" x2="62.9433" y2="16.3014" gradientUnits="userSpaceOnUse">
<stop stop-color="#2B916A"/>
<stop offset="1" stop-color="#005434"/>
</linearGradient>
</defs>
</svg>
